<?xml version="1.0" encoding="UTF-8" standalone="no"?>
<!DOCTYPE svg PUBLIC "-//W3C//DTD SVG 1.1//EN" "http://www.w3.org/Graphics/SVG/1.1/DTD/svg11.dtd">
<svg width="100%" height="100%" viewBox="0 0 266 52" version="1.1" xmlns="http://www.w3.org/2000/svg" xmlns:xlink="http://www.w3.org/1999/xlink" xml:space="preserve" xmlns:serif="http://www.serif.com/" style="fill-rule:evenodd;clip-rule:evenodd;stroke-linejoin:round;stroke-miterlimit:2;">
    <g transform="matrix(0.886228,0,0,0.172455,0,0)">
        <rect x="0" y="0" width="300" height="300" style="fill:rgb(80,73,62);"/>
    </g>
    <g transform="matrix(1.13073,0,0,1.13073,60.287,14.0159)">
        <path d="M9.23,10.51L11.07,10.51L11.07,0.71L8.96,0.71L5.89,4.93L2.83,0.71L0.7,0.71L0.7,10.51L2.55,10.51L2.55,3.39L5.67,7.66L6.03,7.66L9.23,3.4L9.23,10.51ZM12.73,3.6L12.73,7.22C12.73,9.37 13.93,10.61 15.58,10.61C16.55,10.61 17.21,10.28 17.92,9.58L18.03,10.51L19.56,10.51L19.56,3.6L17.86,3.6L17.86,7.13C17.86,8.18 17.15,9.06 16.1,9.06C15.01,9.06 14.43,8.26 14.43,7.21L14.43,3.6L12.73,3.6ZM21.07,0.71L21.07,10.5L22.76,10.5L22.76,0.71L21.07,0.71ZM24.96,1.83L24.96,3.61L23.67,3.61L23.67,5.08L24.96,5.08L24.96,8.06C24.96,9.79 25.94,10.64 27.44,10.58C27.96,10.57 28.36,10.49 28.85,10.29L28.38,8.83C28.13,8.96 27.82,9.04 27.55,9.04C27.02,9.04 26.66,8.72 26.66,8.06L26.66,5.08L28.57,5.08L28.57,3.61L26.67,3.61L26.67,1.65L24.96,1.83ZM31.56,3.57L31.56,10.5L29.85,10.5L29.85,3.57L31.56,3.57ZM29.69,1.65C29.69,2.98 31.71,2.98 31.71,1.65C31.71,0.32 29.69,0.32 29.69,1.65ZM37.9,10.5L37.9,6.87L42.81,6.87L42.81,5.17L37.9,5.17L37.9,2.49L43.09,2.49L43.09,0.71L36.05,0.71L36.05,10.5L37.9,10.5ZM44.28,3.6L44.28,7.22C44.28,9.37 45.49,10.61 47.14,10.61C48.1,10.61 48.76,10.28 49.48,9.58L49.59,10.51L51.11,10.51L51.11,3.6L49.42,3.6L49.42,7.13C49.42,8.18 48.71,9.06 47.66,9.06C46.56,9.06 45.99,8.26 45.99,7.21L45.99,3.6L44.28,3.6ZM53.33,1.83L53.33,3.61L52.04,3.61L52.04,5.08L53.33,5.08L53.33,8.06C53.33,9.79 54.31,10.64 55.8,10.58C56.32,10.57 56.73,10.49 57.22,10.29L56.74,8.83C56.49,8.96 56.18,9.04 55.92,9.04C55.38,9.04 55.02,8.72 55.02,8.06L55.02,5.08L56.94,5.08L56.94,3.61L55.03,3.61L55.03,1.65L53.33,1.83ZM58.25,3.6L58.25,7.22C58.25,9.37 59.46,10.61 61.11,10.61C62.08,10.61 62.73,10.28 63.45,9.58L63.56,10.51L65.09,10.51L65.09,3.6L63.39,3.6L63.39,7.13C63.39,8.18 62.68,9.06 61.63,9.06C60.54,9.06 59.96,8.26 59.96,7.21L59.96,3.6L58.25,3.6ZM66.6,3.6L66.6,10.5L68.31,10.5L68.31,6.86C68.31,5.59 69.13,5.11 70.03,5.11C70.59,5.11 70.91,5.26 71.26,5.56L72.03,4.07C71.65,3.7 70.97,3.42 70.25,3.42C69.55,3.42 68.84,3.54 68.31,4.4L68.18,3.6L66.6,3.6ZM79.52,7.66C79.79,4.82 78.34,3.39 76.03,3.39C73.79,3.39 72.37,4.9 72.37,7C72.37,9.21 73.78,10.68 76.16,10.68C77.21,10.68 78.4,10.32 79.13,9.56L78.04,8.48C77.64,8.89 76.82,9.13 76.19,9.13C74.98,9.13 74.24,8.51 74.13,7.66L79.52,7.66ZM74.16,6.24C74.41,5.35 75.17,4.9 76.09,4.9C77.07,4.9 77.77,5.35 77.88,6.24L74.16,6.24ZM91.17,7.99C90.52,8.64 89.56,8.99 88.7,8.99C86.28,8.99 85.34,7.29 85.33,5.67C85.32,4.03 86.34,2.27 88.7,2.27C89.56,2.27 90.43,2.56 91.07,3.19L92.3,2C91.29,1.01 90.03,0.5 88.7,0.5C85.16,0.5 83.5,3.11 83.51,5.67C83.52,8.22 85.06,10.72 88.7,10.72C90.12,10.72 91.42,10.26 92.43,9.27L91.17,7.99ZM98.46,4.55C98.07,3.86 97.19,3.43 96.26,3.43C94.25,3.42 92.67,4.66 92.67,7.04C92.67,9.46 94.18,10.72 96.22,10.71C96.99,10.7 98.07,10.3 98.46,9.49L98.55,10.5L100.16,10.5L100.16,3.6L98.52,3.6L98.46,4.55ZM96.42,4.96C99.11,4.96 99.11,9.14 96.42,9.14C95.28,9.14 94.37,8.36 94.37,7.04C94.37,5.73 95.28,4.96 96.42,4.96ZM101.6,3.6L101.6,10.5L103.31,10.5L103.31,6.86C103.31,5.59 104.13,5.11 105.03,5.11C105.59,5.11 105.91,5.26 106.26,5.56L107.03,4.07C106.65,3.7 105.97,3.42 105.25,3.42C104.55,3.42 103.84,3.54 103.31,4.4L103.18,3.6L101.6,3.6ZM119.32,10.37L116.35,7.03C118.22,6.65 118.83,5.29 118.83,3.95C118.83,2.25 117.61,0.71 115.3,0.7C113.75,0.7 112.2,0.69 110.64,0.69L110.64,10.5L112.49,10.5L112.49,7.22L114.27,7.22L117.12,10.5L119.32,10.5L119.32,10.37ZM115.3,2.42C116.47,2.42 116.98,3.21 116.98,3.99C116.98,4.77 116.48,5.56 115.3,5.56L112.49,5.56L112.49,2.42L115.3,2.42ZM126.8,7.66C127.06,4.82 125.62,3.39 123.31,3.39C121.07,3.39 119.64,4.9 119.64,7C119.64,9.21 121.06,10.68 123.44,10.68C124.49,10.68 125.68,10.32 126.41,9.56L125.31,8.48C124.92,8.89 124.1,9.13 123.47,9.13C122.26,9.13 121.52,8.51 121.41,7.66L126.8,7.66ZM121.44,6.24C121.69,5.35 122.44,4.9 123.37,4.9C124.35,4.9 125.05,5.35 125.16,6.24L121.44,6.24ZM133.41,3.58L132.45,5.89L131.4,8.78L130.34,5.87L129.39,3.58L127.53,3.58L130.48,10.53L132.33,10.53L135.27,3.58L133.41,3.58ZM137.8,3.57L137.8,10.5L136.09,10.5L136.09,3.57L137.8,3.57ZM135.94,1.65C135.94,2.98 137.96,2.98 137.96,1.65C137.96,0.32 135.94,0.32 135.94,1.65ZM146.19,7.66C146.45,4.82 145.01,3.39 142.7,3.39C140.46,3.39 139.03,4.9 139.03,7C139.03,9.21 140.45,10.68 142.83,10.68C143.88,10.68 145.07,10.32 145.8,9.56L144.7,8.48C144.31,8.89 143.49,9.13 142.86,9.13C141.65,9.13 140.91,8.51 140.8,7.66L146.19,7.66ZM140.83,6.24C141.08,5.35 141.83,4.9 142.76,4.9C143.74,4.9 144.44,5.35 144.55,6.24L140.83,6.24ZM152.35,3.58L150.85,8.78L149.27,3.58L147.36,3.58L149.79,10.53L151.77,10.53L152.49,8.48L153.1,6.17L153.72,8.48L154.43,10.53L156.42,10.53L158.83,3.58L156.94,3.58L155.36,8.78L153.85,3.58L152.35,3.58Z" style="fill:white;fill-rule:nonzero;"/>
    </g>
    <g transform="matrix(0.881197,0,0,0.881197,19.8802,15.2908)">
        <circle cx="25.044" cy="25.043" r="6.956" style="fill:rgb(213,79,62);"/>
    </g>
    <g transform="matrix(0.881197,0,0,0.881197,19.8802,15.2908)">
        <circle cx="6.956" cy="25.043" r="6.956" style="fill:rgb(213,79,62);"/>
    </g>
    <g transform="matrix(0.881197,0,0,0.881197,19.8802,15.2908)">
        <path d="M0.172,2.201L13.74,2.201L13.74,15.769L0.172,15.769L0.172,2.201ZM18.432,2.201L32,2.201L32,15.769L18.432,15.769L18.432,2.201Z" style="fill:rgb(213,79,62);fill-rule:nonzero;"/>
    </g>
    <g transform="matrix(0.427496,0,0,0.9434,60.946,31.7394)">
        <path d="M1.15,6.34L0.31,6.15L0.36,5.89L3.05,5.89L3.03,6.11L1.9,6.32L3.86,13.18L5.9,6.18L6.21,6.14L8.15,13.18L10.36,6.36L9.08,6.13L9.12,5.89L11.74,5.89L11.72,6.14L10.91,6.34L8.22,14.49L7.77,14.57L5.94,7.63L3.92,14.49L3.44,14.57L1.15,6.34ZM20.66,6.36L19.43,6.18L19.48,5.89L25.68,5.89L25.46,8.07L25.15,8.03L25.02,6.24L21.37,6.24L21.37,9.89L23.66,9.89L23.91,8.94L24.28,8.89L24.06,11.55L23.71,11.61L23.6,10.26L21.37,10.26L21.37,14.03L25.21,14.03L25.72,12.19L26,12.26L25.79,14.4L19.46,14.4L19.5,14.11L20.66,13.9L20.66,6.36ZM44.84,6.33L43.61,6.16L43.63,5.89L46.75,5.89L46.72,6.16L45.56,6.32L45.56,9.95L50.47,9.95L50.47,6.33L49.21,6.16L49.26,5.89L52.37,5.89L52.32,6.16L51.17,6.32L51.17,13.95L52.42,14.08L52.38,14.4L49.28,14.4L49.33,14.11L50.47,13.9L50.47,10.36L45.56,10.36L45.56,13.95L46.83,14.08L46.76,14.4L43.67,14.4L43.7,14.11L44.84,13.9L44.84,6.33ZM61.36,6.36L60.14,6.18L60.18,5.89L66.38,5.89L66.17,8.07L65.85,8.03L65.72,6.24L62.07,6.24L62.07,9.89L64.36,9.89L64.61,8.94L64.98,8.89L64.76,11.55L64.41,11.61L64.3,10.26L62.07,10.26L62.07,14.03L65.91,14.03L66.42,12.19L66.7,12.26L66.49,14.4L60.16,14.4L60.2,14.11L61.36,13.9L61.36,6.36ZM80.58,14.4L74.42,14.4L74.46,14.11L75.61,13.9L75.61,6.34L74.44,6.17L74.46,5.9L77.57,5.9L77.55,6.17L76.34,6.32L76.34,14.03L79.97,14.03L80.49,12.09L80.79,12.14L80.58,14.4ZM91.92,14.4L88.51,14.4L88.55,14.11L89.63,13.9L89.63,6.51L88.52,6.36L88.58,6.12C88.693,6.1 88.9,6.067 89.2,6.02C89.5,5.967 89.727,5.93 89.88,5.91C90.027,5.89 90.237,5.867 90.51,5.84C90.783,5.82 91.06,5.81 91.34,5.81C91.8,5.81 92.227,5.86 92.62,5.96C93.013,6.053 93.363,6.2 93.67,6.4C93.977,6.593 94.217,6.853 94.39,7.18C94.563,7.5 94.65,7.87 94.65,8.29C94.65,8.697 94.557,9.077 94.37,9.43C94.183,9.79 93.937,10.09 93.63,10.33C93.323,10.57 92.97,10.76 92.57,10.9C92.163,11.033 91.75,11.1 91.33,11.1C91.143,11.1 91.03,11.097 90.99,11.09L90.92,10.8L91.29,10.78C91.73,10.76 92.117,10.683 92.45,10.55C92.777,10.423 93.037,10.25 93.23,10.03C93.423,9.81 93.567,9.567 93.66,9.3C93.753,9.033 93.8,8.743 93.8,8.43C93.8,8.13 93.747,7.843 93.64,7.57C93.527,7.297 93.363,7.05 93.15,6.83C92.937,6.61 92.653,6.437 92.3,6.31C91.953,6.177 91.563,6.11 91.13,6.11L90.38,6.15L90.38,13.95L91.98,14.08L91.92,14.4ZM112.31,8.09L112.25,5.89L119.31,5.89L119.07,8.16L118.73,8.12L118.61,6.24L116.07,6.24L116.07,13.9L117.28,14.08L117.21,14.4L114.11,14.4L114.15,14.11L115.34,13.9L115.34,6.24L112.91,6.24L112.67,8.15L112.31,8.09ZM127.8,9.75C127.8,10.603 127.92,11.357 128.16,12.01C128.4,12.67 128.76,13.19 129.24,13.57C129.72,13.95 130.287,14.14 130.94,14.14C131.32,14.14 131.673,14.067 132,13.92C132.327,13.773 132.607,13.577 132.84,13.33C133.067,13.083 133.263,12.803 133.43,12.49C133.59,12.17 133.71,11.84 133.79,11.5C133.863,11.16 133.9,10.82 133.9,10.48C133.9,9.16 133.617,8.097 133.05,7.29C132.483,6.477 131.717,6.07 130.75,6.07C130.363,6.07 130.007,6.14 129.68,6.28C129.353,6.42 129.073,6.61 128.84,6.85C128.613,7.09 128.42,7.37 128.26,7.69C128.1,8.003 127.983,8.337 127.91,8.69C127.837,9.037 127.8,9.39 127.8,9.75ZM127.05,10.16C127.05,8.827 127.413,7.747 128.14,6.92C128.873,6.1 129.853,5.69 131.08,5.69C131.833,5.69 132.483,5.883 133.03,6.27C133.577,6.663 133.98,7.187 134.24,7.84C134.507,8.5 134.64,9.257 134.64,10.11C134.64,10.537 134.59,10.96 134.49,11.38C134.39,11.793 134.233,12.193 134.02,12.58C133.8,12.973 133.537,13.317 133.23,13.61C132.923,13.903 132.543,14.14 132.09,14.32C131.637,14.493 131.143,14.58 130.61,14.58C129.903,14.58 129.277,14.38 128.73,13.98C128.183,13.573 127.767,13.037 127.48,12.37C127.193,11.703 127.05,10.967 127.05,10.16ZM152.28,13.6L152.49,11.66L152.82,11.71L153.01,13.21C153.157,13.497 153.407,13.723 153.76,13.89C154.113,14.057 154.493,14.14 154.9,14.14C155.353,14.14 155.74,14.007 156.06,13.74C156.38,13.467 156.54,13.09 156.54,12.61C156.54,12.337 156.467,12.077 156.32,11.83C156.18,11.583 155.993,11.367 155.76,11.18C155.533,10.993 155.277,10.81 154.99,10.63C154.71,10.45 154.433,10.263 154.16,10.07C153.88,9.883 153.627,9.687 153.4,9.48C153.167,9.273 152.977,9.03 152.83,8.75C152.69,8.47 152.62,8.167 152.62,7.84C152.62,7.2 152.85,6.683 153.31,6.29C153.777,5.903 154.303,5.71 154.89,5.71C155.283,5.71 155.66,5.773 156.02,5.9C156.38,6.027 156.667,6.213 156.88,6.46L156.66,8.58L156.34,8.53L156.16,6.87C156.04,6.65 155.84,6.467 155.56,6.32C155.28,6.173 154.997,6.1 154.71,6.1C154.317,6.1 153.98,6.227 153.7,6.48C153.427,6.74 153.29,7.087 153.29,7.52C153.29,7.813 153.363,8.09 153.51,8.35C153.657,8.61 153.85,8.837 154.09,9.03C154.323,9.223 154.58,9.417 154.86,9.61C155.147,9.797 155.43,9.983 155.71,10.17C155.997,10.357 156.257,10.55 156.49,10.75C156.723,10.95 156.917,11.183 157.07,11.45C157.217,11.717 157.29,11.997 157.29,12.29C157.29,12.95 157.04,13.497 156.54,13.93C156.033,14.357 155.367,14.57 154.54,14.57C154.067,14.57 153.63,14.48 153.23,14.3C152.83,14.12 152.513,13.887 152.28,13.6ZM166.23,6.36L165.01,6.18L165.05,5.89L171.25,5.89L171.04,8.07L170.72,8.03L170.59,6.24L166.94,6.24L166.94,9.89L169.23,9.89L169.48,8.94L169.85,8.89L169.63,11.55L169.28,11.61L169.17,10.26L166.94,10.26L166.94,14.03L170.78,14.03L171.29,12.19L171.57,12.26L171.36,14.4L165.03,14.4L165.07,14.11L166.23,13.9L166.23,6.36ZM185.45,14.4L179.29,14.4L179.33,14.11L180.48,13.9L180.48,6.34L179.31,6.17L179.33,5.9L182.44,5.9L182.42,6.17L181.21,6.32L181.21,14.03L184.84,14.03L185.36,12.09L185.66,12.14L185.45,14.4ZM194.61,6.36L193.38,6.18L193.43,5.89L199.62,5.89L199.41,8.07L199.1,8.03L198.97,6.24L195.32,6.24L195.32,9.89L197.61,9.89L197.86,8.94L198.23,8.89L198,11.55L197.65,11.61L197.54,10.26L195.32,10.26L195.32,14.03L199.16,14.03L199.66,12.19L199.94,12.26L199.74,14.4L193.4,14.4L193.44,14.11L194.61,13.9L194.61,6.36ZM207.68,10.25C207.68,9.903 207.717,9.557 207.79,9.21C207.857,8.857 207.96,8.51 208.1,8.17C208.233,7.83 208.41,7.513 208.63,7.22C208.843,6.92 209.09,6.66 209.37,6.44C209.643,6.213 209.967,6.033 210.34,5.9C210.713,5.773 211.11,5.71 211.53,5.71C212.477,5.71 213.253,5.937 213.86,6.39L213.64,8.7L213.32,8.64L213.12,6.87C212.72,6.35 212.083,6.09 211.21,6.09C210.443,6.09 209.783,6.457 209.23,7.19C208.683,7.93 208.41,8.867 208.41,10C208.41,11.28 208.677,12.27 209.21,12.97C209.743,13.677 210.503,14.03 211.49,14.03C211.977,14.03 212.45,13.903 212.91,13.65C213.37,13.403 213.757,13.1 214.07,12.74L214.23,12.99C214.117,13.163 213.963,13.337 213.77,13.51C213.583,13.683 213.36,13.853 213.1,14.02C212.84,14.187 212.543,14.32 212.21,14.42C211.87,14.52 211.527,14.57 211.18,14.57C210.127,14.57 209.28,14.18 208.64,13.4C208,12.613 207.68,11.563 207.68,10.25ZM221.97,8.09L221.9,5.89L228.96,5.89L228.72,8.16L228.38,8.12L228.27,6.24L225.73,6.24L225.73,13.9L226.94,14.08L226.86,14.4L223.77,14.4L223.8,14.11L225,13.9L225,6.24L222.56,6.24L222.33,8.15L221.97,8.09ZM247.52,6.35L246.57,6.15L246.6,5.9L249.45,5.9L249.42,6.15L248.29,6.32L250.43,10.49L252.55,6.34L251.28,6.14L251.3,5.89L253.96,5.89L253.94,6.14L253.06,6.32L250.67,11.05L250.67,13.94L251.91,14.08L251.86,14.4L248.71,14.4L248.75,14.11L249.95,13.9L249.95,11.05L247.52,6.35ZM262.45,9.75C262.45,10.603 262.57,11.357 262.81,12.01C263.05,12.67 263.41,13.19 263.89,13.57C264.37,13.95 264.933,14.14 265.58,14.14C265.967,14.14 266.323,14.067 266.65,13.92C266.977,13.773 267.257,13.577 267.49,13.33C267.717,13.083 267.91,12.803 268.07,12.49C268.237,12.17 268.357,11.84 268.43,11.5C268.51,11.16 268.55,10.82 268.55,10.48C268.55,9.16 268.267,8.097 267.7,7.29C267.133,6.477 266.367,6.07 265.4,6.07C265.013,6.07 264.657,6.14 264.33,6.28C263.997,6.42 263.717,6.61 263.49,6.85C263.263,7.09 263.07,7.37 262.91,7.69C262.75,8.003 262.633,8.337 262.56,8.69C262.487,9.037 262.45,9.39 262.45,9.75ZM261.69,10.16C261.69,8.827 262.057,7.747 262.79,6.92C263.523,6.1 264.503,5.69 265.73,5.69C266.483,5.69 267.133,5.883 267.68,6.27C268.227,6.663 268.63,7.187 268.89,7.84C269.157,8.5 269.29,9.257 269.29,10.11C269.29,10.537 269.24,10.96 269.14,11.38C269.04,11.793 268.88,12.193 268.66,12.58C268.447,12.973 268.187,13.317 267.88,13.61C267.573,13.903 267.193,14.14 266.74,14.32C266.287,14.493 265.79,14.58 265.25,14.58C264.55,14.58 263.927,14.38 263.38,13.98C262.827,13.573 262.407,13.037 262.12,12.37C261.833,11.703 261.69,10.967 261.69,10.16ZM278.22,6.33L276.99,6.16L277.01,5.89L280.12,5.89L280.09,6.16L278.93,6.32L278.93,11.01C278.93,11.583 278.99,12.077 279.11,12.49C279.237,12.897 279.413,13.217 279.64,13.45C279.873,13.677 280.14,13.843 280.44,13.95C280.74,14.057 281.087,14.11 281.48,14.11C282.26,14.11 282.863,13.873 283.29,13.4C283.723,12.92 283.94,12.23 283.94,11.33L283.94,6.33L282.67,6.16L282.7,5.89L285.61,5.89L285.55,6.16L284.42,6.32L284.4,11.05C284.393,12.203 284.143,13.08 283.65,13.68C283.157,14.28 282.357,14.58 281.25,14.58C280.917,14.58 280.61,14.55 280.33,14.49C280.043,14.43 279.77,14.32 279.51,14.16C279.243,14.007 279.017,13.807 278.83,13.56C278.65,13.313 278.503,12.993 278.39,12.6C278.277,12.207 278.22,11.753 278.22,11.24L278.22,6.33ZM295.11,6.18L295.11,10.11L296.66,10.11C297.113,9.943 297.493,9.667 297.8,9.28C298.107,8.893 298.26,8.473 298.26,8.02C298.26,7.413 298.053,6.95 297.64,6.63C297.227,6.31 296.657,6.15 295.93,6.15L295.11,6.18ZM296.48,14.4L293.29,14.4L293.34,14.11L294.4,13.9L294.4,6.51L293.31,6.37L293.37,6.13C294.59,5.93 295.56,5.83 296.28,5.83C296.787,5.83 297.243,5.903 297.65,6.05C298.057,6.197 298.383,6.423 298.63,6.73C298.883,7.037 299.01,7.403 299.01,7.83C299.01,8.323 298.867,8.76 298.58,9.14C298.3,9.527 297.813,9.89 297.12,10.23L298.44,12.19C298.913,12.883 299.267,13.347 299.5,13.58C299.727,13.807 299.97,13.963 300.23,14.05L300.56,14.16L300.51,14.42C300.317,14.487 300.107,14.52 299.88,14.52C299.687,14.52 299.507,14.48 299.34,14.4C299.173,14.32 299.007,14.19 298.84,14.01C298.68,13.837 298.54,13.66 298.42,13.48C298.293,13.307 298.14,13.07 297.96,12.77L296.57,10.49L295.11,10.49L295.11,13.95L296.55,14.08L296.48,14.4ZM320.05,6.19L320.05,14.03L321.28,14.03C322.487,14.03 323.453,13.67 324.18,12.95C324.913,12.23 325.28,11.287 325.28,10.12C325.28,8.84 324.93,7.86 324.23,7.18C323.53,6.5 322.533,6.16 321.24,6.16C320.573,6.16 320.177,6.17 320.05,6.19ZM321.1,14.4L318.15,14.4L318.21,14.11L319.36,13.9L319.36,6.51L318.19,6.36L318.25,6.12C319.643,5.9 320.723,5.79 321.49,5.79C322.137,5.79 322.717,5.87 323.23,6.03C323.75,6.183 324.18,6.393 324.52,6.66C324.867,6.92 325.153,7.23 325.38,7.59C325.607,7.95 325.77,8.323 325.87,8.71C325.97,9.097 326.02,9.5 326.02,9.92C326.02,10.4 325.963,10.853 325.85,11.28C325.737,11.713 325.55,12.12 325.29,12.5C325.037,12.887 324.723,13.217 324.35,13.49C323.97,13.77 323.503,13.99 322.95,14.15C322.397,14.317 321.78,14.4 321.1,14.4ZM335.56,6.18L335.56,10.11L337.11,10.11C337.563,9.943 337.943,9.667 338.25,9.28C338.557,8.893 338.71,8.473 338.71,8.02C338.71,7.413 338.503,6.95 338.09,6.63C337.677,6.31 337.107,6.15 336.38,6.15L335.56,6.18ZM336.93,14.4L333.74,14.4L333.79,14.11L334.85,13.9L334.85,6.51L333.76,6.37L333.82,6.13C335.033,5.93 336,5.83 336.72,5.83C337.233,5.83 337.693,5.903 338.1,6.05C338.507,6.197 338.833,6.423 339.08,6.73C339.333,7.037 339.46,7.403 339.46,7.83C339.46,8.323 339.317,8.76 339.03,9.14C338.743,9.527 338.257,9.89 337.57,10.23L338.89,12.19C339.363,12.883 339.717,13.347 339.95,13.58C340.177,13.807 340.42,13.963 340.68,14.05L341,14.16L340.96,14.42C340.767,14.487 340.557,14.52 340.33,14.52C340.137,14.52 339.957,14.48 339.79,14.4C339.617,14.32 339.45,14.19 339.29,14.01C339.13,13.837 338.987,13.66 338.86,13.48C338.74,13.307 338.59,13.07 338.41,12.77L337.02,10.49L335.56,10.49L335.56,13.95L337,14.08L336.93,14.4ZM349.92,6.36L348.69,6.18L348.74,5.89L354.94,5.89L354.72,8.07L354.41,8.03L354.28,6.24L350.63,6.24L350.63,9.89L352.92,9.89L353.17,8.94L353.54,8.89L353.32,11.55L352.97,11.61L352.86,10.26L350.63,10.26L350.63,14.03L354.47,14.03L354.98,12.19L355.26,12.26L355.05,14.4L348.71,14.4L348.76,14.11L349.92,13.9L349.92,6.36ZM367.03,6.98L365.66,10.75L368.35,10.75L367.03,6.98ZM365.71,14.4L362.98,14.4L363.02,14.11L363.99,13.9L366.98,5.82L367.34,5.73L370.18,13.95L371.08,14.08L371.03,14.39L368.23,14.39L368.29,14.1L369.43,13.9L368.48,11.13L365.52,11.13L364.51,13.95L365.77,14.08L365.71,14.4ZM381.58,14.4L378.75,14.4L378.78,14.17L379.92,13.96L380.49,6.36L379.23,6.14L379.28,5.89L381.46,5.89L381.94,7.18L384.09,12.84L386.54,6.88L386.96,5.89L389.18,5.89L389.15,6.14L387.97,6.34L388.35,14.01L389.58,14.12L389.57,14.4L386.41,14.4L386.45,14.17L387.62,13.96L387.23,6.41L384.05,13.99L383.71,14.05L380.92,6.53L380.38,14.01L381.62,14.12L381.58,14.4ZM407.22,10.25C407.22,9.903 407.253,9.557 407.32,9.21C407.393,8.857 407.497,8.51 407.63,8.17C407.763,7.83 407.94,7.513 408.16,7.22C408.38,6.92 408.627,6.66 408.9,6.44C409.18,6.213 409.503,6.033 409.87,5.9C410.243,5.773 410.643,5.71 411.07,5.71C412.01,5.71 412.783,5.937 413.39,6.39L413.18,8.7L412.86,8.64L412.65,6.87C412.257,6.35 411.62,6.09 410.74,6.09C409.98,6.09 409.323,6.457 408.77,7.19C408.217,7.93 407.94,8.867 407.94,10C407.94,11.28 408.207,12.27 408.74,12.97C409.28,13.677 410.04,14.03 411.02,14.03C411.513,14.03 411.99,13.903 412.45,13.65C412.91,13.403 413.297,13.1 413.61,12.74L413.77,12.99C413.65,13.163 413.497,13.337 413.31,13.51C413.117,13.683 412.89,13.853 412.63,14.02C412.377,14.187 412.08,14.32 411.74,14.42C411.407,14.52 411.063,14.57 410.71,14.57C409.663,14.57 408.82,14.18 408.18,13.4C407.54,12.613 407.22,11.563 407.22,10.25ZM425.5,6.98L424.14,10.75L426.82,10.75L425.5,6.98ZM424.18,14.4L421.46,14.4L421.49,14.11L422.46,13.9L425.46,5.82L425.82,5.73L428.65,13.95L429.56,14.08L429.5,14.39L426.71,14.39L426.77,14.1L427.9,13.9L426.95,11.13L424,11.13L422.99,13.95L424.25,14.08L424.18,14.4ZM439.07,6.18L439.07,10.11L440.62,10.11C441.073,9.943 441.453,9.667 441.76,9.28C442.067,8.893 442.22,8.473 442.22,8.02C442.22,7.413 442.013,6.95 441.6,6.63C441.187,6.31 440.617,6.15 439.89,6.15L439.07,6.18ZM440.44,14.4L437.25,14.4L437.29,14.11L438.36,13.9L438.36,6.51L437.27,6.37L437.33,6.13C438.543,5.93 439.51,5.83 440.23,5.83C440.743,5.83 441.203,5.903 441.61,6.05C442.017,6.197 442.343,6.423 442.59,6.73C442.843,7.037 442.97,7.403 442.97,7.83C442.97,8.323 442.827,8.76 442.54,9.14C442.253,9.527 441.767,9.89 441.08,10.23L442.4,12.19C442.873,12.883 443.227,13.347 443.46,13.58C443.687,13.807 443.93,13.963 444.19,14.05L444.51,14.16L444.47,14.42C444.277,14.487 444.067,14.52 443.84,14.52C443.647,14.52 443.467,14.48 443.3,14.4C443.127,14.32 442.96,14.19 442.8,14.01C442.64,13.837 442.497,13.66 442.37,13.48C442.25,13.307 442.1,13.07 441.92,12.77L440.53,10.49L439.07,10.49L439.07,13.95L440.51,14.08L440.44,14.4ZM452.31,13.92C452.31,13.473 452.453,13.25 452.74,13.25C453.027,13.25 453.17,13.473 453.17,13.92C453.17,14.387 453.027,14.62 452.74,14.62C452.453,14.62 452.31,14.387 452.31,13.92ZM461.06,13.92C461.06,13.473 461.203,13.25 461.49,13.25C461.777,13.25 461.92,13.473 461.92,13.92C461.92,14.387 461.777,14.62 461.49,14.62C461.203,14.62 461.06,14.387 461.06,13.92ZM469.81,13.92C469.81,13.473 469.953,13.25 470.24,13.25C470.527,13.25 470.67,13.473 470.67,13.92C470.67,14.387 470.527,14.62 470.24,14.62C469.953,14.62 469.81,14.387 469.81,13.92Z" style="fill:white;fill-rule:nonzero;"/>
    </g>
</svg>
